<svg xmlns="http://www.w3.org/2000/svg" data-name="Layer 1" width="695.67004" height="666.95394" viewBox="0 0 695.67004 666.95394" xmlns:xlink="http://www.w3.org/1999/xlink"><path d="M534.18543,289.82056a8.49115,8.49115,0,0,1-9.092,8.36325,9.77962,9.77962,0,0,1-1.63921-.20363l-4.05238,25.2393-16.209-6.08848,12.75208-28.97415a8.544,8.544,0,0,1,9.02891-7.33658A9.38957,9.38957,0,0,1,534.18543,289.82056Z" transform="translate(-252.16498 -116.52303)" fill="#9e616a"/><path d="M516.08779,295.6781c-5.82863,1.00591-10.441,5.62869-13.37591,10.76394-2.9349,5.13517-4.57209,10.89637-7.00915,16.28566-5.27211,11.65884-14.18367,21.32948-23.9898,29.54916-9.27846,7.77734-19.43442,14.42638-29.17058,21.62447a37.043,37.043,0,0,0-3.02071,10.9291c-.324,4.293.8797,8.9248,4.13453,11.74267,3.056,2.64577,7.35086,3.28532,11.3925,3.35125a53.96909,53.96909,0,0,0,41.09183-18.38192c6.07546-7.0228,10.19475-15.48578,14.24479-23.84212q5.4154-11.17343,10.8308-22.34679c2.0178-4.16334,4.08906-8.62161,3.53379-13.21468a19.954,19.954,0,0,0,5.756-12.4876,14.19769,14.19769,0,0,0-2.195-9.21507A12.52673,12.52673,0,0,0,516.08779,295.6781Z" transform="translate(-252.16498 -116.52303)" fill="#3f3d56"/><path d="M442.54235,373.90133" transform="translate(-252.16498 -116.52303)" fill="#3f3d56"/><rect x="437.59621" y="391.70646" width="42.68198" height="169.11729" transform="translate(865.72499 302.8822) rotate(129.00678)" fill="#f2f2f2"/><path d="M317.97443,385.26427c1.52389-7.86362,7.9983-14.86761,15.95025-15.82943,8.88124-1.07419,17.02218,5.029,22.96043,11.71981,1.28609,1.44912,2.88867,3.08935,4.80361,2.79439a3.86584,3.86584,0,0,0,2.90273-3.28518,11.45374,11.45374,0,0,0-.47738-4.62313c-.83078-3.41661-1.64185-6.904-1.39127-10.41126s1.72655-7.09767,4.62922-9.08207,7.34221-1.8305,9.55512.902c2.5,3.087,1.345,7.58281,1.40316,11.55481.0931,6.361,3.66356,12.20568,8.06063,16.80315,4.39712,4.59746,9.66788,8.26495,14.30761,12.61744.59116.55459,1.17815,1.14462,1.7351,1.7635l.38968-.4811a9.26117,9.26117,0,0,1,13.02571-1.36753v0a9.26108,9.26108,0,0,1,1.36748,13.02566L386.2769,449.53871a9.26114,9.26114,0,0,1-13.02565,1.36748h-.00005a9.2612,9.2612,0,0,1-1.36748-13.0257l2.99517-3.69782a36.51961,36.51961,0,0,0-11.52138-7.18241c-6.1877-2.54494-12.76947-3.99864-19.04122-6.32868-7.5085-2.78948-14.68368-6.95292-19.826-13.09427S316.4505,393.12794,317.97443,385.26427Z" transform="translate(-252.16498 -116.52303)" fill="#00bfa6"/><circle cx="368.76167" cy="203.74607" r="88.58525" fill="#f2f2f2"/><circle cx="368.76167" cy="469.50181" r="196.49819" fill="#f2f2f2"/><circle cx="335.74354" cy="192.47158" r="7.24788" fill="#3f3d56"/><circle cx="377.6202" cy="192.47158" r="7.24788" fill="#3f3d56"/><path d="M598.99114,319.99351l-28.92982,16.973A4.59316,4.59316,0,0,0,573.447,345.397l30.31982-7.201a4.89066,4.89066,0,0,0,3.72166-5.37395l-1.17072-9.226A4.89065,4.89065,0,0,0,598.99114,319.99351Z" transform="translate(-252.16498 -116.52303)" fill="#fd6584"/><circle cx="368.76167" cy="391.38573" r="14.49577" fill="#3f3d56"/><circle cx="368.76167" cy="455.00605" r="14.49577" fill="#3f3d56"/><circle cx="368.76167" cy="518.62636" r="14.49577" fill="#3f3d56"/><path d="M728.65566,356.27332c-12.63627-4.90231-27.55608-1.81762-38.47042,6.21892-8.41187,6.1939-14.63969,14.96459-22.97306,21.26367-12.89825,9.74967-29.90283,12.75119-46.0259,11.54026-16.12312-1.211-31.67587-6.26851-47.04529-11.28864,0,0-21.05448-18.48969-34.70068-20.21795a46.3729,46.3729,0,0,0-37.77639,12.76721c-7.77686,7.65974-12.7358,19.17915-9.61208,29.63829,3.86066,12.92656,18.835,19.85436,32.29918,19.00824s9.91034,11.98691,21.68083,5.39468c-12.19974,52.5531-23.05274,82.08188-60.51533,120.90477-3.81126,3.94963-7.84533,7.97068-9.71924,13.12957-1.87385,5.15884-.8588,11.8396,3.81471,14.71774,3.70828,2.28374,8.50659,1.40676,12.18356-1.0847q-4.85994,9.34768-9.71983,18.69543c-2.28895,4.40258-4.56826,9.824-1.98489,14.06057,3.14883,5.16385,11.59359,4.13567,15.56583-.42738.82729,4.66819,4.27458,9.04919,8.93569,9.23115,6.33738.24734,10.30461-6.57631,12.79862-12.40751q31.2175-72.98972,62.435-145.97947c4.601-10.75749,9.74549-22.17005,19.65436-28.39152,7.9868-5.01463,17.81939-5.82934,27.22533-6.50986l62.95552-4.5547c12.30272-.89006,24.88378-1.84672,36.1796-6.80182,11.29577-4.9551,21.2536-14.76955,22.90037-26.994C750.5507,374.75376,741.29193,361.17563,728.65566,356.27332Z" transform="translate(-252.16498 -116.52303)" fill="#00bfa6"/><path d="M610.58957,367.252a95.13353,95.13353,0,0,1-21.3247-2.52832l.50879-1.93457c.44921.11865,45.11718,11.51514,54.36669-15.46338l1.89161.64844C640.65158,363.66854,624.35032,367.252,610.58957,367.252Z" transform="translate(-252.16498 -116.52303)" fill="#3f3d56"/><path d="M648.49826,349.57332a9.5775,9.5775,0,0,1-5.76757-1.67383,9.10479,9.10479,0,0,1-3.47608-6.665l1.999-.05712a7.18106,7.18106,0,0,0,2.66845,5.11523c2.17383,1.56689,5.498,1.70068,9.87744.39893l.56934,1.917A20.82094,20.82094,0,0,1,648.49826,349.57332Z" transform="translate(-252.16498 -116.52303)" fill="#3f3d56"/><path d="M727.5798,276.64014c-6.22609-5.73909-14.71066-10.23727-19.88454-16.4754-8.82264-10.63752-6.33168-23.90687-8.54975-36.13355-3.34745-18.45223-19.23076-36.02506-42.94849-44.13484s-54.76331-5.44373-73.1857,7.8588C557.2681,206.344,570.19087,216.279,546.9281,236.43128c-6.53143,5.65808-15.09366,10.2668-19.78633,16.77041-4.69267,6.50367-9.04767,31.033.36771,34.04927,10.1134-4.72359,180.88572,12.98014,187.20432,14.10122s13.49393-.82626,17.12116-4.64652C737.5363,290.701,733.806,282.37922,727.5798,276.64014Z" transform="translate(-252.16498 -116.52303)" fill="#00bfa6"/><circle cx="388.08936" cy="29.79686" r="29.79686" fill="#f2f2f2"/><rect x="760.76979" y="404.59159" width="42.68198" height="169.11729" transform="translate(417.78034 -543.00598) rotate(50.99322)" fill="#f2f2f2"/><path d="M923.07355,398.14939c-1.52389-7.86362-7.9983-14.8676-15.95025-15.82943-8.88123-1.07418-17.02218,5.029-22.96043,11.71981-1.28609,1.44913-2.88867,3.08936-4.80361,2.79439a3.8658,3.8658,0,0,1-2.90272-3.28518,11.4537,11.4537,0,0,1,.47737-4.62312c.83078-3.41661,1.64185-6.904,1.39127-10.41126s-1.72654-7.09768-4.62922-9.08207-7.3422-1.83051-9.55512.902c-2.5,3.087-1.345,7.58281-1.40316,11.5548-.0931,6.361-3.66356,12.20569-8.06063,16.80315s-9.66787,8.265-14.30761,12.61745c-.59116.55459-1.17814,1.14462-1.73509,1.7635l-.38969-.48111a9.26117,9.26117,0,0,0-13.0257-1.36753v0a9.26106,9.26106,0,0,0-1.36748,13.02566l30.9196,38.17334a9.26117,9.26117,0,0,0,13.02566,1.36748h0a9.26123,9.26123,0,0,0,1.36748-13.02571l-2.99518-3.69782a36.52,36.52,0,0,1,11.52138-7.18241c6.18771-2.54494,12.76947-3.99863,19.04123-6.32867,7.50849-2.78948,14.68368-6.95292,19.82595-13.09428S924.59748,406.01307,923.07355,398.14939Z" transform="translate(-252.16498 -116.52303)" fill="#00bfa6"/><rect x="182.32075" y="327.60881" width="48.24981" height="51.62876" fill="#9e616a"/><polygon points="152.23 645.177 161.737 645.177 166.259 605.941 152.229 605.942 152.23 645.177" fill="#9e616a"/><path d="M430.48777,773.16564l-14.285-10.55625v-6.88688l-1.62013.1014-10.184.6546-3.2226.2028-1.83511,23.54638-.06016.78369h6.74642l.13757-.78369,1.06859-6.02948,2.73122,6.02948.35339.78369H428.2046a3.76683,3.76683,0,0,0,2.30925-.78369,4.34814,4.34814,0,0,0,1.71438-3.51259A4.40007,4.40007,0,0,0,430.48777,773.16564Z" transform="translate(-252.16498 -116.52303)" fill="#2f2e41"/><polygon points="205.827 639.719 214.963 642.53 229.445 606.161 215.961 602.012 205.827 639.719" fill="#9e616a"/><path d="M480.10658,774.98618l-11.00269-14.3731,1.78337-6.61954-1.58522-.378-8.83144-2.12051-1.12875-.26735-3.14477-.756-8.10783,22.81806,6.47928,2.0006,2.921-6.19542,1.19774,7.45848,4.08379,1.25388,11.10619,3.42037,2.0076.61775a3.8152,3.8152,0,0,0,3.42033-.61775,4.2717,4.2717,0,0,0,1.55955-2.32325A4.55178,4.55178,0,0,0,480.10658,774.98618Z" transform="translate(-252.16498 -116.52303)" fill="#2f2e41"/><ellipse cx="209.05532" cy="208.78665" rx="25.61435" ry="27.40813" fill="#9e616a"/><path d="M465.50346,292.01138H448.95714c-10.84746,0-19.641,10.58568-19.641,23.64379-8.18524,8.79435-1.26722,9.49528,5.2272,21.35621,4.21374,4.88489,11.81341,17.91134,29.60717,20.06674l1.5444-7.057,3.04633,9.29392q4.064,2.107,8.059,4.6078c-3.10859-15.62794-4.38795-31.21959-2.25371-43.33128h5.60421v-6.56248l1.90242,6.56248h10.16v-.00006C492.21318,304.80715,480.25506,292.01138,465.50346,292.01138Z" transform="translate(-252.16498 -116.52303)" fill="#2f2e41"/><path d="M515.46722,651.51234a16.50207,16.50207,0,0,0-1.353-13.90983L492.21318,516.04333l-8.616-46.09711H431.90092s-32.31014,38.2606-25.41731,87.12354l-1.92936,68.81389a26.95791,26.95791,0,0,0-1.29535,14.92242l.76779,3.89265-.29618.58629a20.89385,20.89385,0,0,0-.23138,18.22878L401.314,741.4582l15.50886-.92194,22.8325-90.81131,15.07807-81.59188,25.41731,63.153.8616,14.75107-.41818,13.00246-19.82951,75.965,16.80128,6.91457Z" transform="translate(-252.16498 -116.52303)" fill="#2f2e41"/><path d="M463.78026,360.2351l-5.23695-5.22372-18-5-7.74221,8.78636-.83316,3.387a210.40857,210.40857,0,0,0-3.101,85.34409v0h0a7.9491,7.9491,0,0,1,2.0201,7.38154l-.445,1.89837.04118.06953a11.77694,11.77694,0,0,1,1.37972,8.30192c-26.47,23.16858-36.95069,48.976-34,77l1.54944,9.12891c95.57476,45.49444,127.55761,16.51233,84.18475-100.72367L494.798,409.098Z" transform="translate(-252.16498 -116.52303)" fill="#3f3d56"/><path d="M540.55478,447.67567a9.214,9.214,0,0,0-.93431,1.32222l-45.237-32.044-32.319-43.97144a12.43334,12.43334,0,0,0-16.90767-3.32077c-6.08564,3.915-8.10694,12.33251-4.53879,18.90148l0,0a108.59551,108.59551,0,0,0,20.03518,26.39642l26.14629,25.19026,55.08863,21.2373a8.21133,8.21133,0,0,0,11.37536-1.25893,9.67914,9.67914,0,0,0-.53555-13.02564A8.22569,8.22569,0,0,0,540.55478,447.67567Z" transform="translate(-252.16498 -116.52303)" fill="#9e616a"/><path d="M463.89157,368.6322c-3.8695-1.88717-7.82144-3.79356-12.08394-4.39824s-8.96326.29284-11.98845,3.356c-2.84038,2.876-3.76,7.11973-4.09078,11.14836a53.96908,53.96908,0,0,0,15.649,42.20827c6.60949,6.52273,14.78427,11.1879,22.85718,15.777l21.58882,12.27223c4.02209,2.28637,8.33507,4.64538,12.95467,4.39235a19.95362,19.95362,0,0,0,12.08344,6.56216,14.19755,14.19755,0,0,0,9.33911-1.58629,12.5266,12.5266,0,0,0,5.549-11.885c-.62169-5.882-4.93223-10.78748-9.864-14.05265s-10.57324-5.27646-15.79124-8.06151c-11.28819-6.025-20.35394-15.55123-27.9132-25.875S468.39276,376.9412,461.4,366.22557" transform="translate(-252.16498 -116.52303)" fill="#3f3d56"/><path d="M442.28355,449.2493c-3.45866-.59465-7.203-.50515-10.2353,1.26158s-5.06,5.55853-3.95213,8.88848a8.41392,8.41392,0,0,0,5.63254,4.98184,24.8766,24.8766,0,0,0,7.73895.73979l27.02084-.25775c4.03476-.03849,8.46952.06358,11.50237,2.7249,3.8829,3.40723,3.76219,9.38013,3.32994,14.52789l-2.4186,28.8033a10.27784,10.27784,0,0,0,.20748,4.09525,3.50232,3.50232,0,0,0,2.93234,2.542c2.62009.10383,3.6516-3.3239,3.82158-5.94054a514.53738,514.53738,0,0,0,.51441-57.50453c-.11136-2.3685-.371-5.0164-2.179-6.55047-1.756-1.48992-4.3213-1.37234-6.61562-1.17394l-46.5305,4.02367" transform="translate(-252.16498 -116.52303)" fill="#2f2e41"/><path d="M484.97554,288.51711c-4.14818-1.97984-8.8767,1.10011-13.46924,1.54767-7.09493.69135-13.0931-4.91767-19.949-6.81548-9.35325-2.58912-19.81235,2.4254-25.14854,10.48259-5.33623,8.05726-6.09443,18.45407-3.877,27.80651.80409,3.39141,2.02772,6.79187,4.37428,9.38491s1.18544,6.77622,4.61925,5.97249l2.98645-1.53761c-2.5933,2.15957-5.27606,4.43594-6.60742,7.5174-1.33129,3.0815,3.99328,4.66926,6.8445,6.46052,4.233,2.65938,9.4768-1.29716,12.89224-4.95339q17.26564-18.48285,34.5314-36.96576c2.5623-2.74294,5.20637-5.62563,6.25214-9.21017C489.47043,294.62229,488.36462,290.13464,484.97554,288.51711Z" transform="translate(-252.16498 -116.52303)" fill="#3f3d56"/><path d="M252.165,782.287a1.18647,1.18647,0,0,0,1.19006,1.19h693.29a1.19,1.19,0,0,0,0-2.38H253.355A1.18651,1.18651,0,0,0,252.165,782.287Z" transform="translate(-252.16498 -116.52303)" fill="#ccc"/></svg>